<svg width="20" height="20" viewBox="0 0 20 20" fill="none" xmlns="http://www.w3.org/2000/svg">
<g clip-path="url(#clip0_715_1086)">
<path fill-rule="evenodd" clip-rule="evenodd" d="M10.375 19.5703C9.82272 19.5703 9.375 19.1226 9.375 18.5703L9.375 2.57031C9.375 2.01803 9.82271 1.57031 10.375 1.57031C10.9273 1.57031 11.375 2.01803 11.375 2.57031L11.375 18.5703C11.375 19.1226 10.9273 19.5703 10.375 19.5703Z" fill="black"/>
<path fill-rule="evenodd" clip-rule="evenodd" d="M16.7499 6.3904C17.1404 6.78092 17.1404 7.41409 16.7499 7.80461C16.3594 8.19514 15.7262 8.19514 15.3357 7.80461L10.3749 2.84383L5.41414 7.80461C5.02361 8.19514 4.39045 8.19514 3.99993 7.80461C3.6094 7.41409 3.6094 6.78092 3.99992 6.3904L10.3749 0.0153996L16.7499 6.3904Z" fill="black"/>
</g>
<defs>
<clipPath id="clip0_715_1086">
<rect width="20" height="20" fill="white" transform="translate(0 20) rotate(-90)"/>
</clipPath>
</defs>
</svg>
