<svg width="154" height="36" viewBox="0 0 154 36" fill="none" xmlns="http://www.w3.org/2000/svg">
<path d="M31.9009 14.5223C29.9623 12.9389 27.2689 11.9843 24.2239 11.7805C24.2167 11.7682 24.2105 11.7549 24.2033 11.7426C24.357 11.7508 24.5127 11.7549 24.6684 11.7549C30.6192 11.7549 34.0643 8.84202 34.9088 3.09824L34.9913 2.53492L32.9857 2.20513L32.8898 2.77664C32.6732 4.05997 31.8658 5.44061 30.6047 5.44061C29.6241 5.44061 28.4981 4.76156 27.073 3.90122C26.5049 3.55811 25.8614 3.16993 25.1757 2.7961C22.6019 1.34377 19.7229 0 16.1108 0C10.6024 0 5.5105 3.06239 2.49024 8.19164C0.861016 10.9591 0 14.0706 0 17.1893C0 20.3081 0.578479 23.3807 1.71894 25.9863C4.54534 32.4429 10.459 36 18.3711 36C21.3367 36 24.2033 35.3865 26.6637 34.2261C29.521 32.8772 31.6844 30.883 33.0929 28.299C34.3014 26.0826 34.9139 23.4678 34.9139 20.5303C34.9139 18.2453 33.8436 16.1119 31.9009 14.5223ZM32.5784 28.0224C29.6994 33.3033 23.7496 35.4193 18.3701 35.4193C10.2322 35.4193 4.80004 31.5734 2.25411 25.7548C1.14562 23.2209 0.583635 20.3152 0.583635 17.1893C0.583635 14.0634 1.45909 11.0912 2.99242 8.48354C5.70127 3.88279 10.4642 0.579704 16.1087 0.579704C19.6178 0.579704 22.4318 1.91527 24.8849 3.30001C27.3339 4.63558 29.0157 6.02031 30.6027 6.02031C32.2855 6.02031 33.2239 4.30169 33.4652 2.87189L34.3293 3.01425C33.5363 8.41287 30.3769 11.1741 24.6673 11.1741C24.3879 11.1741 24.1115 11.1598 23.8393 11.1342C21.71 7.81473 17.7689 5.58502 13.2576 5.58502C6.48598 5.58502 0.996098 10.6078 0.996098 16.8042C0.996098 21.237 3.80703 25.0696 7.88629 26.8917C9.45777 31.1852 15.9675 33.3473 22.9164 31.7444C30.2201 30.0586 35.2429 24.8515 34.1344 20.1124C33.3569 16.7868 29.7664 14.5766 25.1695 14.1362C25.0086 13.5319 24.7942 12.9471 24.5312 12.3858C27.4277 12.6347 29.8293 13.5821 31.5297 14.9719C33.3167 16.4335 34.3293 18.3856 34.3293 20.5313C34.3293 23.5302 33.6796 26.0047 32.5784 28.0234V28.0224Z" fill="white"/>
<path d="M1.45005 17.1901C1.45314 14.3141 2.46058 11.6983 4.24964 9.85882L2.99472 8.48535C1.46036 11.093 0.585938 14.1165 0.585938 17.1911H1.45005V17.1901Z" fill="url(#paint0_linear_6_2371)"/>
<path d="M1.45005 17.2038V17.1895H0.585938C0.585938 20.3153 1.14689 23.221 2.25641 25.7549L4.02588 23.346C2.45646 21.8691 1.45005 19.8708 1.45005 17.2038Z" fill="url(#paint1_linear_6_2371)"/>
<path d="M31.5313 14.9717L29.9258 16.6187C32.149 16.6504 33.5152 18.3557 33.4668 20.5301H34.3309C34.3309 18.3844 33.3183 16.4333 31.5313 14.9707V14.9717Z" fill="url(#paint2_linear_6_2371)"/>
<path d="M34.3292 20.5303H33.4651C33.4228 22.3196 32.4597 23.8221 30.3242 24.9385L32.5783 28.0224C33.6796 26.0026 34.3292 23.5292 34.3292 20.5303Z" fill="url(#paint3_linear_6_2371)"/>
<path d="M22.9886 12.3193C15.6808 12.3193 11.7881 18.3827 8.46988 18.3827C7.02729 18.3827 5.92086 16.8085 5.92086 15.2814C5.92086 15.1216 5.9322 14.9679 5.94767 14.8184L5.15162 14.6832C5.08872 15.013 5.05469 15.3551 5.05469 15.7095C5.05469 20.8357 8.9009 24.108 13.7566 24.108C22.9875 24.108 25.7273 16.6169 29.8612 16.6169C29.8819 16.6169 29.9035 16.619 29.9262 16.619L31.5317 14.972C29.5364 13.3425 26.578 12.3204 22.9886 12.3204V12.3193Z" fill="url(#paint4_linear_6_2371)"/>
<path d="M10.8741 7.16678C16.2093 7.16678 19.9112 11.1745 24.671 11.1745C30.3795 11.1745 33.539 8.41222 34.333 3.01463L33.4688 2.87226C33.2275 4.30206 32.2892 6.02069 30.6063 6.02069C29.0194 6.02069 27.3376 4.63493 24.8886 3.30038C22.4355 1.91565 19.6225 0.580078 16.1124 0.580078C10.4689 0.580078 5.70494 3.88316 2.99609 8.48392L4.25101 9.85738C5.87199 8.19099 8.13332 7.16576 10.8741 7.16576V7.16678Z" fill="url(#paint5_linear_6_2371)"/>
<path d="M32.5821 28.0232L30.328 24.9393C27.6758 26.325 23.215 27.1157 16.4507 27.1157C12.3188 27.1157 7.09497 26.2267 4.02728 23.3477L2.25781 25.7566C4.80477 31.5741 10.2359 35.4211 18.3738 35.4211C23.7523 35.4211 29.7031 33.305 32.5821 28.0242V28.0232Z" fill="url(#paint6_linear_6_2371)"/>
<path d="M90.4594 9.69238H88.6562V18.1856H90.4594V9.69238Z" fill="white"/>
<path d="M87.3032 9.69238H85.5V18.1856H87.3032V9.69238Z" fill="white"/>
<path d="M90.5527 26.6728H79.8686C79.3666 26.6728 78.9379 26.2501 78.9379 25.7524V21.9676H88.602V20.5285H78.8477V18.9229H90.4593V23.4826H80.7983V25.0672H90.5527V26.6728Z" fill="white"/>
<path d="M86.0563 12.6475H83.0273V14.309H86.0563V12.6475Z" fill="white"/>
<path d="M79.9829 16.0982C78.7009 16.0982 77.6788 15.0281 77.6788 13.6986C77.6788 12.3692 78.7009 11.298 79.9829 11.298C81.265 11.298 82.2881 12.3681 82.2881 13.6986C82.2881 15.0291 81.2639 16.0982 79.9829 16.0982ZM79.9829 9.69238C77.6597 9.69238 75.7812 11.5015 75.7812 13.6986C75.7812 15.8957 77.6587 17.7028 79.9829 17.7028C82.3072 17.7028 84.1835 15.8936 84.1835 13.6986C84.1835 11.5036 82.305 9.69238 79.9829 9.69238Z" fill="white"/>
<path d="M106.133 9.69141H104.273V26.6726H106.133V9.69141Z" fill="white"/>
<path d="M93.6815 22.7942C93.1805 22.7942 92.7528 22.3704 92.7528 21.8718V15.5029H99.0686V11.7212H92.6562V10.0586H100.928V17.0537H94.6112V21.1317H102.414V22.7942H93.6815Z" fill="white"/>
<path d="M121.983 9.69238H120.18V26.6736H121.983V9.69238Z" fill="white"/>
<path d="M118.823 9.69238H117.02V26.6736H118.823V9.69238Z" fill="white"/>
<path d="M113.805 14.3975H109.531V16.0221H113.805V14.3975Z" fill="white"/>
<path d="M108.232 9.96973H110.09V20.7676H113.248V9.96973H115.106V21.5067C115.106 22.0032 114.678 22.4281 114.175 22.4281H109.159C108.657 22.4281 108.23 22.0032 108.23 21.5067V9.96973H108.232Z" fill="white"/>
<path d="M117.576 15.1377H114.547V16.7982H117.576V15.1377Z" fill="white"/>
<path d="M138.52 9.69238H136.66V26.6736H138.52V9.69238Z" fill="white"/>
<path d="M129.063 19.7882C127.371 19.7882 125.978 17.9422 125.978 15.5437C125.978 13.1452 127.372 11.2992 129.063 11.2992C130.753 11.2992 132.148 13.1452 132.148 15.5437C132.148 17.9422 130.753 19.7882 129.063 19.7882ZM129.063 9.69141C126.312 9.69141 124.082 12.3324 124.082 15.5426C124.082 18.7529 126.311 21.3939 129.063 21.3939C131.815 21.3939 134.042 18.754 134.042 15.5426C134.042 12.3313 131.811 9.69141 129.063 9.69141Z" fill="white"/>
<path d="M154.001 9.69238H152.145V26.6736H154.001V9.69238Z" fill="white"/>
<path d="M152.7 15.4512H149.172V17.1138H152.7V15.4512Z" fill="white"/>
<path d="M150.287 21.1356V22.7982H141.554C141.055 22.7982 140.625 22.3723 140.625 21.8757V10.0615H148.801V11.722H142.483V21.1356H150.289H150.287Z" fill="white"/>
<path d="M148.427 15.5088H141.926V17.0565H148.427V15.5088Z" fill="white"/>
<path d="M49.3332 27.1146C43.8325 27.1146 40.793 23.5227 40.793 18.2102C40.793 12.8977 44.0851 9.25098 49.4351 9.25098C51.5694 9.25098 53.3513 9.74965 54.7342 10.5245L54.1568 14.2409C52.8504 13.4185 51.3179 12.7723 49.5338 12.7723C46.5441 12.7723 45.0912 14.9652 45.0912 18.1839C45.0912 21.4026 46.5972 23.6988 49.5848 23.6988C50.5399 23.6988 51.2181 23.5227 51.9196 23.1484V20.0805H48.9055L48.4014 16.9113H55.6628V25.2939C53.8533 26.4694 51.719 27.1146 49.3322 27.1146" fill="white"/>
<path d="M63.9013 26.9908C61.5622 26.9908 59.6062 26.4921 57.8477 25.6941L58.4738 22.0515C60.2568 23.0004 62.2425 23.6488 63.9756 23.6488C65.2056 23.6488 66.061 23.1237 66.061 22.1021C66.061 21.0805 65.558 20.6778 63.1212 19.7553C59.655 18.4333 58.148 17.3105 58.148 14.465C58.148 11.1482 60.7599 9.37598 64.0743 9.37598C66.3402 9.37598 67.7963 9.80085 69.3012 10.5241L68.6485 14.116C67.0947 13.2167 65.4582 12.7212 64.1263 12.7212C62.7944 12.7212 62.1926 13.2673 62.1926 14.0675C62.1926 14.9404 62.6691 15.3643 64.8289 16.1887C68.6018 17.5593 70.1067 18.8571 70.1067 21.6024C70.1067 25.3461 67.3431 26.9919 63.9024 26.9919" fill="white"/>
<defs>
<linearGradient id="paint0_linear_6_2371" x1="4.83517" y1="10.8354" x2="-0.249907" y2="15.9549" gradientUnits="userSpaceOnUse">
<stop stop-color="#FAB71B"/>
<stop offset="1" stop-color="#C4BF30"/>
</linearGradient>
<linearGradient id="paint1_linear_6_2371" x1="0.127215" y1="17.9714" x2="4.48402" y2="22.3577" gradientUnits="userSpaceOnUse">
<stop stop-color="#C4BF30"/>
<stop offset="1" stop-color="#83BD46"/>
</linearGradient>
<linearGradient id="paint2_linear_6_2371" x1="31.4376" y1="14.923" x2="35.1431" y2="18.6537" gradientUnits="userSpaceOnUse">
<stop stop-color="#73CBF2"/>
<stop offset="1" stop-color="#1AB6C3"/>
</linearGradient>
<linearGradient id="paint3_linear_6_2371" x1="35.3435" y1="22.0791" x2="31.5995" y2="25.8485" gradientUnits="userSpaceOnUse">
<stop stop-color="#1AB6C3"/>
<stop offset="1" stop-color="#04A99D"/>
</linearGradient>
<linearGradient id="paint4_linear_6_2371" x1="6.83116" y1="17.3933" x2="29.7626" y2="17.3933" gradientUnits="userSpaceOnUse">
<stop stop-color="#0A72B9"/>
<stop offset="1" stop-color="#73CBF2"/>
</linearGradient>
<linearGradient id="paint5_linear_6_2371" x1="3.13179" y1="7.09754" x2="34.5163" y2="7.09754" gradientUnits="userSpaceOnUse">
<stop stop-color="#FAB71B"/>
<stop offset="0.58" stop-color="#F18521"/>
<stop offset="1" stop-color="#EC6625"/>
</linearGradient>
<linearGradient id="paint6_linear_6_2371" x1="3.69619" y1="29.8983" x2="30.0354" y2="29.8983" gradientUnits="userSpaceOnUse">
<stop stop-color="#83BD46"/>
<stop offset="1" stop-color="#04A99D"/>
</linearGradient>
</defs>
</svg>
