<svg width="154" height="36" viewBox="0 0 154 36" fill="none" xmlns="http://www.w3.org/2000/svg">
<path d="M1.45005 17.1901C1.45314 14.3141 2.46058 11.6983 4.24964 9.85882L2.99472 8.48535C1.46036 11.093 0.585938 14.1165 0.585938 17.1911H1.45005V17.1901Z" fill="url(#paint0_linear_90_17728)"/>
<path d="M1.45005 17.2038V17.1895H0.585938C0.585938 20.3153 1.14689 23.221 2.25641 25.7549L4.02588 23.346C2.45646 21.8691 1.45005 19.8708 1.45005 17.2038Z" fill="url(#paint1_linear_90_17728)"/>
<path d="M31.5313 14.9717L29.9258 16.6187C32.149 16.6504 33.5152 18.3557 33.4668 20.5301H34.3309C34.3309 18.3844 33.3183 16.4333 31.5313 14.9707V14.9717Z" fill="url(#paint2_linear_90_17728)"/>
<path d="M34.3292 20.5303H33.4651C33.4228 22.3196 32.4597 23.8221 30.3242 24.9385L32.5783 28.0224C33.6796 26.0026 34.3292 23.5292 34.3292 20.5303Z" fill="url(#paint3_linear_90_17728)"/>
<path d="M22.9886 12.3193C15.6808 12.3193 11.7881 18.3827 8.46988 18.3827C7.02729 18.3827 5.92086 16.8085 5.92086 15.2814C5.92086 15.1216 5.9322 14.9679 5.94767 14.8184L5.15162 14.6832C5.08872 15.013 5.05469 15.3551 5.05469 15.7095C5.05469 20.8357 8.9009 24.108 13.7566 24.108C22.9875 24.108 25.7273 16.6169 29.8612 16.6169C29.8819 16.6169 29.9035 16.619 29.9262 16.619L31.5317 14.972C29.5364 13.3425 26.578 12.3204 22.9886 12.3204V12.3193Z" fill="url(#paint4_linear_90_17728)"/>
<path d="M10.8741 7.16678C16.2093 7.16678 19.9112 11.1745 24.671 11.1745C30.3795 11.1745 33.539 8.41222 34.333 3.01463L33.4688 2.87226C33.2275 4.30206 32.2892 6.02069 30.6063 6.02069C29.0194 6.02069 27.3376 4.63493 24.8886 3.30038C22.4355 1.91565 19.6225 0.580078 16.1124 0.580078C10.4689 0.580078 5.70494 3.88316 2.99609 8.48392L4.25101 9.85738C5.87199 8.19099 8.13332 7.16576 10.8741 7.16576V7.16678Z" fill="url(#paint5_linear_90_17728)"/>
<path d="M32.5821 28.0232L30.328 24.9393C27.6758 26.325 23.215 27.1157 16.4507 27.1157C12.3188 27.1157 7.09497 26.2267 4.02728 23.3477L2.25781 25.7566C4.80477 31.5741 10.2359 35.4211 18.3738 35.4211C23.7523 35.4211 29.7031 33.305 32.5821 28.0242V28.0232Z" fill="url(#paint6_linear_90_17728)"/>
<path d="M90.4594 9.69238H88.6562V18.1856H90.4594V9.69238Z" fill="#808285"/>
<path d="M87.3032 9.69238H85.5V18.1856H87.3032V9.69238Z" fill="#808285"/>
<path d="M90.5527 26.6728H79.8686C79.3666 26.6728 78.9379 26.2501 78.9379 25.7524V21.9676H88.602V20.5285H78.8477V18.9229H90.4593V23.4826H80.7983V25.0672H90.5527V26.6728Z" fill="#808285"/>
<path d="M86.0563 12.6475H83.0273V14.309H86.0563V12.6475Z" fill="#808285"/>
<path d="M79.9829 16.0982C78.7009 16.0982 77.6788 15.0281 77.6788 13.6986C77.6788 12.3692 78.7009 11.298 79.9829 11.298C81.265 11.298 82.2881 12.3681 82.2881 13.6986C82.2881 15.0291 81.2639 16.0982 79.9829 16.0982ZM79.9829 9.69238C77.6597 9.69238 75.7812 11.5015 75.7812 13.6986C75.7812 15.8957 77.6587 17.7028 79.9829 17.7028C82.3072 17.7028 84.1835 15.8936 84.1835 13.6986C84.1835 11.5036 82.305 9.69238 79.9829 9.69238Z" fill="#808285"/>
<path d="M106.133 9.69141H104.273V26.6726H106.133V9.69141Z" fill="#808285"/>
<path d="M93.6815 22.7942C93.1805 22.7942 92.7528 22.3704 92.7528 21.8718V15.5029H99.0686V11.7212H92.6562V10.0586H100.928V17.0537H94.6112V21.1317H102.414V22.7942H93.6815Z" fill="#808285"/>
<path d="M121.983 9.69238H120.18V26.6736H121.983V9.69238Z" fill="#808285"/>
<path d="M118.823 9.69238H117.02V26.6736H118.823V9.69238Z" fill="#808285"/>
<path d="M113.805 14.3975H109.531V16.0221H113.805V14.3975Z" fill="#808285"/>
<path d="M108.232 9.96973H110.09V20.7676H113.248V9.96973H115.106V21.5067C115.106 22.0032 114.678 22.4281 114.175 22.4281H109.159C108.657 22.4281 108.23 22.0032 108.23 21.5067V9.96973H108.232Z" fill="#808285"/>
<path d="M117.576 15.1377H114.547V16.7982H117.576V15.1377Z" fill="#808285"/>
<path d="M138.52 9.69238H136.66V26.6736H138.52V9.69238Z" fill="#808285"/>
<path d="M129.063 19.7882C127.371 19.7882 125.978 17.9422 125.978 15.5437C125.978 13.1452 127.372 11.2992 129.063 11.2992C130.753 11.2992 132.148 13.1452 132.148 15.5437C132.148 17.9422 130.753 19.7882 129.063 19.7882ZM129.063 9.69141C126.312 9.69141 124.082 12.3324 124.082 15.5426C124.082 18.7529 126.311 21.3939 129.063 21.3939C131.815 21.3939 134.042 18.754 134.042 15.5426C134.042 12.3313 131.811 9.69141 129.063 9.69141Z" fill="#808285"/>
<path d="M154.001 9.69238H152.145V26.6736H154.001V9.69238Z" fill="#808285"/>
<path d="M152.7 15.4512H149.172V17.1138H152.7V15.4512Z" fill="#808285"/>
<path d="M150.287 21.1356V22.7982H141.554C141.055 22.7982 140.625 22.3723 140.625 21.8757V10.0615H148.801V11.722H142.483V21.1356H150.289H150.287Z" fill="#808285"/>
<path d="M148.427 15.5088H141.926V17.0565H148.427V15.5088Z" fill="#808285"/>
<path d="M49.3332 27.1146C43.8325 27.1146 40.793 23.5227 40.793 18.2102C40.793 12.8977 44.0851 9.25098 49.4351 9.25098C51.5694 9.25098 53.3513 9.74965 54.7342 10.5245L54.1568 14.2409C52.8504 13.4185 51.3179 12.7723 49.5338 12.7723C46.5441 12.7723 45.0912 14.9652 45.0912 18.1839C45.0912 21.4026 46.5972 23.6988 49.5848 23.6988C50.5399 23.6988 51.2181 23.5227 51.9196 23.1484V20.0805H48.9055L48.4014 16.9113H55.6628V25.2939C53.8533 26.4694 51.719 27.1146 49.3322 27.1146" fill="#0072BC"/>
<path d="M63.9013 26.9908C61.5622 26.9908 59.6062 26.4921 57.8477 25.6941L58.4738 22.0515C60.2568 23.0004 62.2425 23.6488 63.9756 23.6488C65.2056 23.6488 66.061 23.1237 66.061 22.1021C66.061 21.0805 65.558 20.6778 63.1212 19.7553C59.655 18.4333 58.148 17.3105 58.148 14.465C58.148 11.1482 60.7599 9.37598 64.0743 9.37598C66.3402 9.37598 67.7963 9.80085 69.3012 10.5241L68.6485 14.116C67.0947 13.2167 65.4582 12.7212 64.1263 12.7212C62.7944 12.7212 62.1926 13.2673 62.1926 14.0675C62.1926 14.9404 62.6691 15.3643 64.8289 16.1887C68.6018 17.5593 70.1067 18.8571 70.1067 21.6024C70.1067 25.3461 67.3431 26.9919 63.9024 26.9919" fill="#0072BC"/>
<defs>
<linearGradient id="paint0_linear_90_17728" x1="4.83517" y1="10.8354" x2="-0.249907" y2="15.9549" gradientUnits="userSpaceOnUse">
<stop stop-color="#FAB71B"/>
<stop offset="1" stop-color="#C4BF30"/>
</linearGradient>
<linearGradient id="paint1_linear_90_17728" x1="0.127215" y1="17.9714" x2="4.48402" y2="22.3577" gradientUnits="userSpaceOnUse">
<stop stop-color="#C4BF30"/>
<stop offset="1" stop-color="#83BD46"/>
</linearGradient>
<linearGradient id="paint2_linear_90_17728" x1="31.4376" y1="14.923" x2="35.1431" y2="18.6537" gradientUnits="userSpaceOnUse">
<stop stop-color="#73CBF2"/>
<stop offset="1" stop-color="#1AB6C3"/>
</linearGradient>
<linearGradient id="paint3_linear_90_17728" x1="35.3435" y1="22.0791" x2="31.5995" y2="25.8485" gradientUnits="userSpaceOnUse">
<stop stop-color="#1AB6C3"/>
<stop offset="1" stop-color="#04A99D"/>
</linearGradient>
<linearGradient id="paint4_linear_90_17728" x1="6.83116" y1="17.3933" x2="29.7626" y2="17.3933" gradientUnits="userSpaceOnUse">
<stop stop-color="#0A72B9"/>
<stop offset="1" stop-color="#73CBF2"/>
</linearGradient>
<linearGradient id="paint5_linear_90_17728" x1="3.13179" y1="7.09754" x2="34.5163" y2="7.09754" gradientUnits="userSpaceOnUse">
<stop stop-color="#FAB71B"/>
<stop offset="0.58" stop-color="#F18521"/>
<stop offset="1" stop-color="#EC6625"/>
</linearGradient>
<linearGradient id="paint6_linear_90_17728" x1="3.69619" y1="29.8983" x2="30.0354" y2="29.8983" gradientUnits="userSpaceOnUse">
<stop stop-color="#83BD46"/>
<stop offset="1" stop-color="#04A99D"/>
</linearGradient>
</defs>
</svg>
