<svg width="132" height="137" viewBox="0 0 132 137" fill="none" xmlns="http://www.w3.org/2000/svg">
<g opacity="0.6">
<path d="M14.3347 36.4602L9.43676 31.0469C3.42858 41.3192 0 53.2058 0 65.288H3.3796C3.3796 53.9721 7.33063 43.6835 14.3347 36.4602Z" fill="white" fill-opacity="0.5"/>
<path d="M13.4531 89.5005C7.31431 83.6958 3.3796 75.8366 3.3796 65.3523V65.2871H0C0 77.5813 2.20409 89.0113 6.53063 98.9739L13.4531 89.5005Z" fill="white" fill-opacity="0.5"/>
<path d="M121.027 56.5625L114.758 63.0357C123.46 63.1662 128.799 69.8839 128.603 78.4279H131.982C131.982 69.9818 128.015 62.3183 121.027 56.5625Z" fill="white" fill-opacity="0.5"/>
<path d="M131.998 78.4284H128.618C128.455 85.4723 124.683 91.3748 116.324 95.761L125.141 107.876C129.451 99.9351 131.998 90.2009 131.998 78.4121V78.4284Z" fill="white" fill-opacity="0.5"/>
<path d="M17.8599 55.4386C17.615 56.7267 17.4844 58.08 17.4844 59.466C17.4844 79.6193 32.5211 92.5005 51.5253 92.5005C87.6397 92.5005 98.3499 63.0368 114.513 63.0368C114.595 63.0368 114.676 63.0368 114.774 63.0368L121.044 56.5636C113.24 50.1556 101.681 46.1445 87.6397 46.1445C59.0518 46.1445 43.8191 69.9829 30.8558 69.9829C25.2068 69.9829 20.8803 63.7869 20.8803 57.7865C20.8803 57.1669 20.9293 56.5636 20.9946 55.9603L17.8762 55.4386H17.8599Z" fill="white" fill-opacity="0.5"/>
<path d="M40.2301 25.8766C61.0955 25.8766 75.5772 41.6438 94.1895 41.6438C116.524 41.6438 128.867 30.7845 131.985 9.55497L128.606 9.00059C127.659 14.6259 124.002 21.3926 117.406 21.3926C111.202 21.3926 104.622 15.9467 95.0384 10.6963C85.4384 5.25037 74.4343 6.1237e-05 60.72 6.1237e-05C38.6464 -0.0325494 20.0178 12.9628 9.42188 31.0617L14.3198 36.475C20.6546 29.9203 29.5036 25.8766 40.2301 25.8766Z" fill="white" fill-opacity="0.5"/>
<path d="M62.0416 104.338C45.8783 104.338 25.4537 100.832 13.4537 89.5L6.53125 98.9734C16.4905 121.85 37.7477 136.981 69.5682 136.981C90.6131 136.981 113.878 128.649 125.144 107.876L116.327 95.7612C105.96 101.207 88.507 104.322 62.0579 104.322L62.0416 104.338Z" fill="white" fill-opacity="0.5"/>
</g>
</svg>
