<svg width="24" height="25" viewBox="0 0 24 25" fill="none" xmlns="http://www.w3.org/2000/svg">
<g id="menu">
<g id="Vector">
<path d="M2.83333 3.58333C3.29357 3.1231 4.03976 3.1231 4.5 3.58333L21.1667 20.25C21.6269 20.7102 21.6269 21.4564 21.1667 21.9167C20.7064 22.3769 19.9602 22.3769 19.5 21.9167L2.83333 5.25C2.3731 4.78976 2.3731 4.04357 2.83333 3.58333Z" fill="black"/>
<path d="M21.1667 3.58333C21.6269 4.04357 21.6269 4.78976 21.1667 5.25L4.5 21.9167C4.03976 22.3769 3.29357 22.3769 2.83333 21.9167C2.3731 21.4564 2.3731 20.7102 2.83333 20.25L19.5 3.58333C19.9602 3.1231 20.7064 3.1231 21.1667 3.58333Z" fill="black"/>
</g>
</g>
</svg>
