<svg width="24" height="25" viewBox="0 0 24 25" fill="none" xmlns="http://www.w3.org/2000/svg">
<g id="menu">
<g id="Vector">
<path d="M23 12.1684C23 12.7193 22.5534 13.1658 22.0025 13.1658H1.99745C1.44658 13.1658 1 12.7193 1 12.1684C1 11.6175 1.44658 11.1709 1.99745 11.1709H22.0025C22.5534 11.1709 23 11.6175 23 12.1684Z" fill="black"/>
<path d="M23 3.12245C23 3.67333 22.5534 4.11991 22.0025 4.11991H1.99745C1.44658 4.11991 1 3.67333 1 3.12245C1 2.57158 1.44658 2.125 1.99745 2.125H22.0025C22.5534 2.125 23 2.57158 23 3.12245Z" fill="black"/>
<path d="M23 21.1275C23 21.6784 22.5534 22.125 22.0025 22.125H1.99745C1.44658 22.125 1 21.6784 1 21.1275C1 20.5767 1.44658 20.1301 1.99745 20.1301H22.0025C22.5534 20.1301 23 20.5767 23 21.1275Z" fill="black"/>
</g>
</g>
</svg>
