<svg width="24" height="25" viewBox="0 0 24 25" fill="none" xmlns="http://www.w3.org/2000/svg">
<g id="menu">
<g id="Vector">
<path d="M23 12.5434C23 13.0943 22.5534 13.5408 22.0025 13.5408H1.99745C1.44658 13.5408 1 13.0943 1 12.5434C1 11.9925 1.44658 11.5459 1.99745 11.5459H22.0025C22.5534 11.5459 23 11.9925 23 12.5434Z" fill="white"/>
<path d="M23 3.49745C23 4.04833 22.5534 4.49491 22.0025 4.49491H1.99745C1.44658 4.49491 1 4.04833 1 3.49745C1 2.94658 1.44658 2.5 1.99745 2.5H22.0025C22.5534 2.5 23 2.94658 23 3.49745Z" fill="white"/>
<path d="M23 21.5025C23 22.0534 22.5534 22.5 22.0025 22.5H1.99745C1.44658 22.5 1 22.0534 1 21.5025C1 20.9517 1.44658 20.5051 1.99745 20.5051H22.0025C22.5534 20.5051 23 20.9517 23 21.5025Z" fill="white"/>
</g>
</g>
</svg>
