<svg width="120" height="120" viewBox="0 0 120 120" fill="none" xmlns="http://www.w3.org/2000/svg">
<path fill-rule="evenodd" clip-rule="evenodd" d="M38.3167 14.9999C38.3167 14.0794 39.0628 13.3333 39.9833 13.3333H79.9833C80.9038 13.3333 81.65 14.0794 81.65 14.9999C81.65 15.9204 80.9038 16.6666 79.9833 16.6666H39.9833C39.0628 16.6666 38.3167 15.9204 38.3167 14.9999Z" fill="#107AF2"/>
<path fill-rule="evenodd" clip-rule="evenodd" d="M60 33.3333C60.9205 33.3333 61.6666 34.0794 61.6666 34.9999L61.6666 105L58.3333 105L58.3333 34.9999C58.3333 34.0794 59.0795 33.3333 60 33.3333Z" fill="#BEDEFC"/>
<path fill-rule="evenodd" clip-rule="evenodd" d="M26.6667 21.6667H93.3334V105H90V25.0001H30V105H26.6667V21.6667Z" fill="#107AF2"/>
<path fill-rule="evenodd" clip-rule="evenodd" d="M11.6667 105C11.6667 104.079 12.4129 103.333 13.3334 103.333L106.667 103.333C107.587 103.333 108.333 104.079 108.333 105C108.333 105.92 107.587 106.667 106.667 106.667L13.3334 106.667C12.4129 106.667 11.6667 105.92 11.6667 105Z" fill="#107AF2"/>
<path fill-rule="evenodd" clip-rule="evenodd" d="M68.3334 58.3333C69.2538 58.3333 70 59.0794 70 59.9999V69.9999C70 70.9204 69.2538 71.6666 68.3334 71.6666C67.4129 71.6666 66.6667 70.9204 66.6667 69.9999V59.9999C66.6667 59.0794 67.4129 58.3333 68.3334 58.3333Z" fill="#107AF2"/>
</svg>
