<svg width="24" height="24" viewBox="0 0 24 24" fill="none" xmlns="http://www.w3.org/2000/svg">
<g clip-path="url(#clip0_481_2048)">
<path d="M10.1709 22.8486L10.0058 23.8349L12.2721 24.2142L11.0052 22.2973L10.1709 22.8486ZM14 15.5L14.7682 16.1402L14 15.5ZM18 7.5L18.6508 8.25926L19.7689 7.30092L18.4657 6.61508L18 7.5ZM8.5 8L7.89776 7.20168L7.87288 7.22046L7.84921 7.24074L8.5 8ZM5.02986 15.2425C5.16381 15.7783 5.70674 16.1041 6.24254 15.9701C6.77833 15.8362 7.10409 15.2933 6.97014 14.7575L5.02986 15.2425ZM13.0374 11.3433C13.5032 11.0465 13.6401 10.4283 13.3433 9.96259C13.0465 9.49683 12.4283 9.35988 11.9626 9.65668L13.0374 11.3433ZM8.5 16.5L7.52242 16.2894L7.51992 16.301L7.5177 16.3127L8.5 16.5ZM2 12C2 6.47715 6.47715 2 12 2V0C5.37258 0 0 5.37258 0 12H2ZM12 2C17.5228 2 22 6.47715 22 12H24C24 5.37258 18.6274 0 12 0V2ZM22 12C22 15.5095 20.1929 18.5975 17.4538 20.3834L18.5462 22.0587C21.8275 19.9193 24 16.2136 24 12H22ZM10.336 21.8623C5.60532 21.0706 2 16.9554 2 12H0C0 17.9486 4.32738 22.8845 10.0058 23.8349L10.336 21.8623ZM14.7682 16.1402C16.2073 14.4132 16.3646 12.9013 16.6056 11.6961C16.7241 11.1033 16.858 10.5881 17.1358 10.0578C17.4118 9.53085 17.8565 8.94005 18.6508 8.25926L17.3492 6.74074C16.3935 7.55995 15.7757 8.34415 15.3642 9.12974C14.9545 9.91189 14.7759 10.6467 14.6444 11.3039C14.3854 12.5987 14.2927 13.5868 13.2318 14.8598L14.7682 16.1402ZM18.4657 6.61508C17.4396 6.07501 15.9131 5.37436 14.076 5.23883C12.2071 5.10095 10.0835 5.5528 7.89776 7.20168L9.10224 8.79832C10.8933 7.4472 12.5345 7.13054 13.9288 7.23341C15.3549 7.33862 16.5901 7.88797 17.5343 8.38492L18.4657 6.61508ZM8.5 8C7.84921 7.24074 7.8489 7.24101 7.84857 7.24129C7.84845 7.24139 7.84811 7.24169 7.84786 7.2419C7.84736 7.24233 7.8468 7.24282 7.84619 7.24334C7.84496 7.2444 7.84353 7.24564 7.84188 7.24707C7.83859 7.24992 7.83446 7.25353 7.82952 7.25788C7.81964 7.26657 7.80651 7.27823 7.7904 7.29279C7.75818 7.32192 7.71392 7.36273 7.65966 7.41473C7.55123 7.51864 7.40218 7.66788 7.22881 7.85858C6.88344 8.23848 6.43413 8.79113 6.01751 9.4855C5.1882 10.8677 4.44285 12.8945 5.02986 15.2425L6.97014 14.7575C6.55715 13.1055 7.0618 11.6323 7.73249 10.5145C8.06587 9.95887 8.42906 9.51152 8.70869 9.20392C8.84782 9.05087 8.96439 8.93449 9.04347 8.85871C9.08295 8.82087 9.11292 8.79332 9.13148 8.77654C9.14075 8.76816 9.14716 8.76248 9.15046 8.75958C9.15211 8.75813 9.15299 8.75737 9.15305 8.75731C9.15308 8.75728 9.15291 8.75743 9.15254 8.75775C9.15235 8.75792 9.15211 8.75812 9.15182 8.75837C9.15168 8.7585 9.15142 8.75872 9.15135 8.75878C9.15108 8.75901 9.15079 8.75926 8.5 8ZM12.5 10.5C11.9626 9.65668 11.9623 9.65689 11.9619 9.65711C11.9618 9.6572 11.9614 9.65743 11.9612 9.6576C11.9606 9.65793 11.9601 9.6583 11.9594 9.6587C11.9582 9.6595 11.9567 9.66043 11.9551 9.66148C11.9519 9.66358 11.9478 9.66619 11.9431 9.6693C11.9336 9.67552 11.9211 9.68377 11.9059 9.69404C11.8754 9.71458 11.8337 9.74324 11.7822 9.78002C11.6793 9.85354 11.5367 9.9598 11.3656 10.0989C11.0238 10.3766 10.5643 10.788 10.0769 11.3342C9.10411 12.4245 7.99925 14.0757 7.52242 16.2894L9.47758 16.7106C9.86231 14.9243 10.7574 13.5755 11.5692 12.6658C11.9741 12.212 12.3532 11.8734 12.6268 11.6511C12.7633 11.5402 12.8726 11.459 12.9447 11.4075C12.9807 11.3818 13.0073 11.3635 13.0232 11.3528C13.0312 11.3475 13.0364 11.344 13.0388 11.3424C13.0401 11.3416 13.0406 11.3413 13.0403 11.3415C13.0402 11.3415 13.0399 11.3417 13.0394 11.342C13.0392 11.3422 13.0389 11.3424 13.0386 11.3426C13.0384 11.3427 13.0381 11.3429 13.038 11.3429C13.0377 11.3431 13.0374 11.3433 12.5 10.5ZM7.79289 17.2071C8.89017 18.3044 10.4007 18.3616 11.6254 18.0512C12.8527 17.7402 14.0432 17.0102 14.7682 16.1402L13.2318 14.8598C12.8027 15.3747 11.9932 15.8948 11.134 16.1125C10.2722 16.3309 9.60983 16.1956 9.20711 15.7929L7.79289 17.2071ZM7.5177 16.3127C6.96952 19.1871 7.90626 21.2357 9.33665 23.4L11.0052 22.2973C9.69431 20.3138 9.07694 18.8129 9.4823 16.6873L7.5177 16.3127Z" fill="white"/>
<path d="M18.0749 17.0464L18.1005 21.2218L22.364 21.2426" stroke="white" stroke-width="2" stroke-miterlimit="10" stroke-linecap="round"/>
</g>
<defs>
<clipPath id="clip0_481_2048">
<rect width="24" height="24" fill="white"/>
</clipPath>
</defs>
</svg>
