<svg width="120" height="120" viewBox="0 0 120 120" fill="none" xmlns="http://www.w3.org/2000/svg">
<path fill-rule="evenodd" clip-rule="evenodd" d="M58.6499 72.792C55.3955 69.5376 55.3955 64.2612 58.6499 61.0069L61.0069 58.6498C64.2613 55.3955 69.5376 55.3955 72.792 58.6498L103.433 89.2911C106.688 92.5455 106.688 97.8219 103.433 101.076L101.076 103.433C97.8219 106.688 92.5455 106.688 89.2912 103.433L58.6499 72.792ZM61.0069 63.3639C59.0543 65.3165 59.0543 68.4823 61.0069 70.4349L91.6482 101.076C93.6008 103.029 96.7666 103.029 98.7193 101.076L101.076 98.7192C103.029 96.7666 103.029 93.6008 101.076 91.6481L70.435 61.0069C68.4824 59.0542 65.3165 59.0542 63.3639 61.0069L61.0069 63.3639Z" fill="#107AF2"/>
<path fill-rule="evenodd" clip-rule="evenodd" d="M31.544 36.258C32.1949 35.6071 33.2501 35.6071 33.901 36.258L59.8283 62.1853C60.4791 62.8361 60.4791 63.8914 59.8283 64.5423C59.1774 65.1932 58.1221 65.1932 57.4712 64.5423L31.544 38.615C30.8931 37.9642 30.8931 36.9089 31.544 36.258ZM36.258 31.544C36.9089 30.8931 37.9642 30.8931 38.6151 31.544L64.5423 57.4712C65.1932 58.1221 65.1932 59.1774 64.5423 59.8282C63.8914 60.4791 62.8362 60.4791 62.1853 59.8282L36.258 33.901C35.6072 33.2501 35.6072 32.1948 36.258 31.544Z" fill="#107AF2"/>
<path fill-rule="evenodd" clip-rule="evenodd" d="M14.8044 20.0501L19.9763 15.0024L20.9177 15.2861L20.4368 16.8819C20.9177 15.2861 20.9174 15.286 20.9177 15.2861L20.9275 15.2891L20.9495 15.2958L21.0282 15.3202C21.0958 15.3413 21.1932 15.3721 21.3172 15.4122C21.565 15.4926 21.9194 15.6106 22.3547 15.764C23.2239 16.0703 24.4225 16.5204 25.7422 17.0961C28.32 18.2209 31.5927 19.9232 33.6675 22.1088C35.2459 23.7714 36.664 26.2943 37.6507 28.2731C38.1559 29.2863 38.5702 30.2028 38.8585 30.8664C39.0028 31.1987 39.116 31.4689 39.1938 31.6575C39.2327 31.7518 39.2628 31.8259 39.2835 31.8772L39.3074 31.9369L39.314 31.9534L39.3168 31.9603C39.3168 31.9605 39.3169 31.9607 37.7667 32.5727L39.3168 31.9603L39.7243 32.9927L32.6508 39.8812L31.6473 39.4835L32.2613 37.9341C31.6473 39.4835 31.6475 39.4836 31.6473 39.4835L31.6399 39.4806L31.6232 39.4739L31.5632 39.4497C31.5116 39.4289 31.4372 39.3985 31.3425 39.3592C31.153 39.2807 30.8816 39.1664 30.5479 39.0207C29.8814 38.7297 28.9611 38.3113 27.9442 37.8006C25.9585 36.8033 23.4267 35.368 21.764 33.7651C19.6038 31.6825 17.938 28.4079 16.8419 25.8316C16.2806 24.5125 15.8435 23.3146 15.5465 22.4461C15.3978 22.0112 15.2835 21.6571 15.2058 21.4095C15.167 21.2857 15.1372 21.1883 15.1168 21.1208L15.0933 21.0421L15.0868 21.0202L15.0843 21.0116C15.0842 21.0113 15.0839 21.0103 16.6841 20.5444L15.0843 21.0116L14.8044 20.0501ZM18.5832 21.0199C18.6192 21.128 18.6583 21.2441 18.7005 21.3674C18.9783 22.1797 19.3869 23.2991 19.9091 24.5266C20.98 27.0435 22.4325 29.7794 24.0776 31.3653C25.3512 32.5932 27.4897 33.8423 29.4401 34.8218C30.3913 35.2995 31.2556 35.6925 31.8817 35.9658C31.8844 35.967 31.8871 35.9682 31.8899 35.9694L35.7907 32.1706C35.5202 31.5487 35.1347 30.6971 34.6677 29.7605C33.6981 27.8161 32.4623 25.6807 31.2501 24.4038C29.6659 22.735 26.9275 21.2501 24.4091 20.1513C23.1806 19.6153 22.0599 19.1944 21.2467 18.9078C21.1154 18.8615 20.9924 18.8188 20.8784 18.7798L18.5832 21.0199Z" fill="#107AF2"/>
<path fill-rule="evenodd" clip-rule="evenodd" d="M69.2564 69.2563C69.9073 68.6054 70.9625 68.6054 71.6134 69.2563L92.8266 90.4695C93.4775 91.1204 93.4775 92.1757 92.8266 92.8265C92.1757 93.4774 91.1205 93.4774 90.4696 92.8265L69.2564 71.6133C68.6055 70.9625 68.6055 69.9072 69.2564 69.2563Z" fill="#107AF2"/>
<path fill-rule="evenodd" clip-rule="evenodd" d="M104.22 20.8698L105.27 22.8825C108.877 29.7925 107.782 38.5211 101.975 44.3276C97.4229 48.8801 91.0726 50.536 85.2156 49.3019L77.8655 56.652C77.2147 57.3029 76.1594 57.3029 75.5085 56.652C74.8576 56.0012 74.8576 54.9459 75.5085 54.295L84.1969 45.6067L85.1257 45.8547C90.1348 47.1925 95.6939 45.8951 99.6184 41.9706C103.782 37.8073 104.988 31.8026 103.23 26.5733L96.0828 33.7207C94.7811 35.0225 92.6705 35.0225 91.3688 33.7207L86.6547 29.0067C85.353 27.7049 85.353 25.5944 86.6547 24.2926L93.802 17.1454C88.5728 15.3882 82.5683 16.5942 78.4052 20.7574C74.4808 24.6818 73.1833 30.2406 74.5209 35.2497L74.7689 36.1784L62.5449 48.4025C61.894 49.0533 60.8387 49.0533 60.1879 48.4025C59.537 47.7516 59.537 46.6963 60.1879 46.0454L71.0737 35.1596C69.8399 29.3028 71.4957 22.9528 76.0481 18.4003C81.8545 12.594 90.5829 11.4985 97.4928 15.1052L99.5056 16.1558L89.0117 26.6497L93.7258 31.3637L104.22 20.8698ZM48.4027 60.1876C49.0536 60.8385 49.0536 61.8937 48.4028 62.5446L36.1786 74.7687L35.2499 74.5207C30.2408 73.1831 24.682 74.4805 20.7576 78.405C16.5944 82.5681 15.3884 88.5726 17.1456 93.8017L24.2928 86.6545C25.5946 85.3528 27.7051 85.3528 29.0069 86.6545L33.7209 91.3685C35.0227 92.6703 35.0227 94.7808 33.7209 96.0826L26.5736 103.23C31.8028 104.987 37.8075 103.781 41.9708 99.6182C45.8953 95.6936 47.1927 90.1346 45.8549 85.1254L45.6069 84.1967L54.2953 75.5082C54.9462 74.8574 56.0015 74.8574 56.6523 75.5082C57.3032 76.1591 57.3032 77.2144 56.6523 77.8653L49.3022 85.2154C50.5362 91.0723 48.8803 97.4226 44.3278 101.975C38.5213 107.782 29.7927 108.877 22.8827 105.27L20.87 104.219L31.3639 93.7256L26.6499 89.0115L16.156 99.5054L15.1055 97.4926C11.4987 90.5827 12.5942 81.8543 18.4006 76.0479C22.953 71.4955 29.303 69.8397 35.1598 71.0735L46.0457 60.1876C46.6966 59.5367 47.7519 59.5367 48.4027 60.1876Z" fill="#BEDEFC"/>
</svg>
