<svg width="24" height="24" viewBox="0 0 24 24" fill="none" xmlns="http://www.w3.org/2000/svg">
<g clip-path="url(#clip0_1100_2652)">
<path d="M11.835 6.24072C11.9145 6.1248 12.0855 6.1248 12.165 6.24072L14.0758 9.02887C14.1018 9.06682 14.1401 9.09464 14.1842 9.10765L17.4264 10.0634C17.5612 10.1031 17.6141 10.2658 17.5284 10.3772L15.4672 13.0561C15.4391 13.0926 15.4245 13.1376 15.4258 13.1836L15.5187 16.5624C15.5226 16.7029 15.3842 16.8034 15.2518 16.7563L12.067 15.6238C12.0237 15.6084 11.9763 15.6084 11.933 15.6238L8.74825 16.7563C8.61584 16.8034 8.47745 16.7029 8.48131 16.5624L8.57424 13.1836C8.57551 13.1376 8.56088 13.0926 8.53283 13.0561L6.47162 10.3772C6.38592 10.2658 6.43879 10.1031 6.57358 10.0634L9.81576 9.10765C9.85988 9.09464 9.89817 9.06682 9.92418 9.02887L11.835 6.24072Z" stroke="white" stroke-width="2"/>
<circle cx="12" cy="12" r="11" stroke="white" stroke-width="2"/>
</g>
<defs>
<clipPath id="clip0_1100_2652">
<rect width="24" height="24" fill="white"/>
</clipPath>
</defs>
</svg>
