<svg width="120" height="120" viewBox="0 0 120 120" fill="none" xmlns="http://www.w3.org/2000/svg">
<path fill-rule="evenodd" clip-rule="evenodd" d="M45.2167 29.9999C45.2167 29.0794 45.9629 28.3333 46.8833 28.3333H73.55C74.4705 28.3333 75.2167 29.0794 75.2167 29.9999C75.2167 30.9204 74.4705 31.6666 73.55 31.6666H46.8833C45.9629 31.6666 45.2167 30.9204 45.2167 29.9999Z" fill="#BEDEFC"/>
<path fill-rule="evenodd" clip-rule="evenodd" d="M60.2167 43.3333C61.1372 43.3333 61.8834 44.0794 61.8834 44.9999V88.3333H58.55V44.9999C58.55 44.0794 59.2962 43.3333 60.2167 43.3333Z" fill="#BEDEFC"/>
<path fill-rule="evenodd" clip-rule="evenodd" d="M38.55 35H81.8834V91.6667H38.55V35ZM41.8834 38.3333V88.3333H78.5501V38.3333H41.8834Z" fill="#BEDEFC"/>
<path fill-rule="evenodd" clip-rule="evenodd" d="M66.3167 58.3333C67.2372 58.3333 67.9834 59.0794 67.9834 59.9999V66.6666C67.9834 67.5871 67.2372 68.3333 66.3167 68.3333C65.3962 68.3333 64.65 67.5871 64.65 66.6666V59.9999C64.65 59.0794 65.3962 58.3333 66.3167 58.3333Z" fill="#BEDEFC"/>
<path fill-rule="evenodd" clip-rule="evenodd" d="M14.2936 30.1849C15.1579 29.8683 16.1152 30.3124 16.4317 31.1767L19.5156 39.5975L28.1795 36.5446C29.0476 36.2387 29.9994 36.6945 30.3053 37.5627C30.6112 38.4308 30.1554 39.3826 29.2873 39.6885L17.5178 43.8356L13.3017 32.323C12.9851 31.4587 13.4292 30.5014 14.2936 30.1849Z" fill="#107AF2"/>
<path fill-rule="evenodd" clip-rule="evenodd" d="M15.7607 52.38C16.6738 52.4962 17.3198 53.3306 17.2036 54.2437C16.9795 56.0044 16.8669 57.8174 16.8669 59.6666C16.8669 83.5962 36.2707 103 60.2002 103C77.5636 103 92.5392 92.7953 99.4582 78.0583C99.8494 77.2251 100.842 76.8668 101.675 77.258C102.508 77.6492 102.867 78.6417 102.476 79.4749C95.0279 95.3379 78.9036 106.333 60.2002 106.333C34.4297 106.333 13.5336 85.4371 13.5336 59.6666C13.5336 57.6825 13.6543 55.7288 13.8969 53.8229C14.0131 52.9098 14.8475 52.2638 15.7607 52.38Z" fill="#107AF2"/>
<path fill-rule="evenodd" clip-rule="evenodd" d="M60.2164 16.3333C42.6287 16.3333 27.5085 26.7943 20.7015 41.8371C20.322 42.6757 19.3346 43.0479 18.496 42.6685C17.6573 42.289 17.2851 41.3015 17.6646 40.4629C24.991 24.2724 41.2708 13 60.2164 13C85.9869 13 106.883 33.8962 106.883 59.6667C106.883 61.6193 106.762 63.5347 106.538 65.4289C106.43 66.343 105.602 66.9965 104.687 66.8885C103.773 66.7804 103.12 65.9518 103.228 65.0377C103.437 63.2653 103.55 61.4807 103.55 59.6667C103.55 35.7371 84.1459 16.3333 60.2164 16.3333Z" fill="#107AF2"/>
<path fill-rule="evenodd" clip-rule="evenodd" d="M102.566 76.1641L106.782 87.6767C107.098 88.541 106.654 89.4983 105.79 89.8148C104.925 90.1314 103.968 89.6873 103.652 88.823L100.568 80.4022L91.9039 83.4551C91.0357 83.761 90.084 83.3052 89.778 82.437C89.4721 81.5689 89.9279 80.6171 90.7961 80.3112L102.566 76.1641Z" fill="#107AF2"/>
</svg>
