<svg width="120" height="120" viewBox="0 0 120 120" fill="none" xmlns="http://www.w3.org/2000/svg">
<path fill-rule="evenodd" clip-rule="evenodd" d="M38.3334 14.9999C38.3334 14.0794 39.0796 13.3333 40 13.3333H80C80.9205 13.3333 81.6667 14.0794 81.6667 14.9999C81.6667 15.9204 80.9205 16.6666 80 16.6666H40C39.0796 16.6666 38.3334 15.9204 38.3334 14.9999Z" fill="#107AF2"/>
<path fill-rule="evenodd" clip-rule="evenodd" d="M13.3334 105C13.3334 104.079 14.0796 103.333 15 103.333L105 103.333C105.921 103.333 106.667 104.079 106.667 105C106.667 105.92 105.921 106.667 105 106.667L15 106.667C14.0796 106.667 13.3334 105.92 13.3334 105Z" fill="#BEDEFC"/>
<path fill-rule="evenodd" clip-rule="evenodd" d="M58.3333 23.3333H93.3334V36.6666C93.3334 37.5871 92.5872 38.3333 91.6667 38.3333C90.7462 38.3333 90 37.5871 90 36.6666V26.6666H61.6667V84.7292L67.7441 79.5634C68.4455 78.9672 69.4973 79.0525 70.0934 79.7538C70.6896 80.4552 70.6043 81.507 69.9029 82.1032L60 90.5207L50.0971 82.1032C49.3957 81.507 49.3104 80.4552 49.9066 79.7538C50.5027 79.0525 51.5545 78.9672 52.2559 79.5634L58.3333 84.7292V23.3333ZM91.7286 41.8156L100.814 51.3501C101.449 52.0165 101.424 53.0715 100.758 53.7065C100.091 54.3415 99.0363 54.3161 98.4013 53.6497L93.3334 48.3315V106.667H58.3333V96.6666C58.3333 95.7461 59.0795 94.9999 60 94.9999C60.9205 94.9999 61.6667 95.7461 61.6667 96.6666V103.333H90V48.0331L83.9875 53.7116C83.3183 54.3436 82.2635 54.3135 81.6315 53.6443C80.9994 52.9751 81.0296 51.9203 81.6988 51.2882L91.7286 41.8156Z" fill="#107AF2"/>
<path fill-rule="evenodd" clip-rule="evenodd" d="M25 23.3333H53.3333C54.2538 23.3333 55 24.0794 55 24.9999C55 25.9204 54.2538 26.6666 53.3333 26.6666H28.3333V105C28.3333 105.92 27.5871 106.667 26.6667 106.667C25.7462 106.667 25 105.92 25 105V23.3333Z" fill="#BEDEFC"/>
<path fill-rule="evenodd" clip-rule="evenodd" d="M68.3333 61.6667C69.2538 61.6667 70 62.4129 70 63.3334V70.0001C70 70.9206 69.2538 71.6667 68.3333 71.6667C67.4128 71.6667 66.6666 70.9206 66.6666 70.0001V63.3334C66.6666 62.4129 67.4128 61.6667 68.3333 61.6667Z" fill="#107AF2"/>
</svg>
